<?xml version="1.0" standalone="no"?>
<!DOCTYPE svg PUBLIC "-//W3C//DTD SVG 20010904//EN"
 "http://www.w3.org/TR/2001/REC-SVG-20010904/DTD/svg10.dtd">
<svg version="1.0" xmlns="http://www.w3.org/2000/svg"
 width="475.000000pt" height="475.000000pt" viewBox="0 0 475.000000 475.000000"
 preserveAspectRatio="xMidYMid meet">
<metadata>
Created by potrace 1.11, written by Peter Selinger 2001-2013
</metadata>
<g transform="translate(0.000000,475.000000) scale(0.100000,-0.100000)"
fill="#000000" stroke="none">
<path d="M1886 4538 c-3 -13 -4 -104 -3 -204 l2 -181 -100 -34 c-538 -182
-972 -620 -1152 -1161 l-28 -84 -290 1 c-160 0 -296 -1 -302 -3 -10 -3 -13
-111 -13 -493 0 -269 3 -489 8 -490 4 0 140 -2 302 -2 l295 -2 31 -91 c109
-314 294 -590 545 -809 153 -134 405 -277 599 -341 47 -15 89 -31 93 -35 5 -3
9 -96 10 -205 l2 -199 490 0 490 0 2 198 c0 109 3 201 6 204 3 2 49 20 104 39
151 52 383 173 486 254 333 259 524 531 669 945 l14 40 290 0 c159 1 295 4
302 9 9 5 12 118 12 492 l0 484 -32 1 c-18 1 -154 2 -303 2 l-270 2 -30 90
c-132 386 -380 711 -719 939 -115 79 -326 182 -446 220 l-85 27 2 182 c2 100
0 192 -2 205 l-5 22 -485 0 -485 0 -4 -22z m1174 -1315 c78 -64 159 -155 214
-238 82 -124 100 -112 -170 -111 l-234 0 0 26 c-1 43 -1 352 -1 402 l1 48 73
-45 c39 -24 92 -61 117 -82z m-1177 -101 c-1 -119 -2 -224 -2 -233 -1 -14 -29
-16 -236 -16 -209 0 -235 2 -230 16 17 43 128 193 188 253 90 90 237 197 272
198 6 0 9 -78 8 -218z m-2 -1261 c1 -30 1 -408 0 -433 -1 -15 -8 -13 -51 12
-154 91 -290 224 -382 375 -47 77 -63 71 198 72 l234 0 1 -26z m1451 10 c-18
-51 -120 -189 -197 -266 -72 -73 -236 -190 -257 -183 -8 3 -14 332 -8 454 0 7
77 10 234 10 210 1 234 -1 228 -15z"/>
</g>
</svg>
