<?xml version="1.0" encoding="UTF-8" standalone="no"?>
<svg
   xmlns:bx="https://boxy-svg.com"
   xmlns:dc="http://purl.org/dc/elements/1.1/"
   xmlns:cc="http://creativecommons.org/ns#"
   xmlns:rdf="http://www.w3.org/1999/02/22-rdf-syntax-ns#"
   xmlns:svg="http://www.w3.org/2000/svg"
   xmlns="http://www.w3.org/2000/svg"
   xmlns:xlink="http://www.w3.org/1999/xlink"
   xmlns:sodipodi="http://sodipodi.sourceforge.net/DTD/sodipodi-0.dtd"
   xmlns:inkscape="http://www.inkscape.org/namespaces/inkscape"
   viewBox="9.015 13.176 485.437 444.522"
   version="1.1"
   id="svg140"
   sodipodi:docname="svp2.svg"
   inkscape:version="0.92.4 (f8dce91, 2019-08-02)">
  <metadata
     id="metadata144">
    <rdf:RDF>
      <cc:Work
         rdf:about="">
        <dc:format>image/svg+xml</dc:format>
        <dc:type
           rdf:resource="http://purl.org/dc/dcmitype/StillImage" />
        <dc:title></dc:title>
      </cc:Work>
    </rdf:RDF>
  </metadata>
  <sodipodi:namedview
     pagecolor="#ffffff"
     bordercolor="#666666"
     borderopacity="1"
     objecttolerance="10"
     gridtolerance="10"
     guidetolerance="10"
     inkscape:pageopacity="0"
     inkscape:pageshadow="2"
     inkscape:window-width="1920"
     inkscape:window-height="1043"
     id="namedview142"
     showgrid="false"
     inkscape:zoom="1.6210826"
     inkscape:cx="230.10493"
     inkscape:cy="270.35878"
     inkscape:window-x="0"
     inkscape:window-y="0"
     inkscape:window-maximized="1"
     inkscape:current-layer="g138" />
  <defs
     id="defs118">
    <path
       id="text-path-0"
       d="M 85.8125 167.859375 Q 191.1875 140.828125 296.5625 167.859375" />
    <path
       id="text-path-1"
       d="M 72.373 413.769 C 111.126 359.75 206.005 357.509 246.369 425.557" />
    <path
       id="text-path-2"
       d="M 107.487 304.765 C 170.179 374.304 239.212 337.381 278.699 304.764" />
  </defs>
  <g
     transform="matrix(1.181237, 0, 0, 1.181237, -36.223969, -68.285904)"
     id="g138">
    <path
       d="M 68 68 m -2.278 0 a 2.278 2.278 0 1 0 4.556 0 a 2.278 2.278 0 1 0 -4.556 0 Z M 68 68 m -1.367 0 a 1.367 1.367 0 0 1 2.734 0 a 1.367 1.367 0 0 1 -2.734 0 Z"
       style="fill: rgb(216, 216, 216);"
       transform="matrix(0, 1.000001, -0.999998, 0, 99.101872, -75.179861)"
       bx:shape="ring 68 68 1.367 1.367 2.278 2.278 1@1b86c235"
       id="path120" />
    <path
       d="M 203.289 73.654 H 283.254 V 220.499 H 443.183 V 293.922 H 283.254 V 440.767 H 203.289 V 293.922 H 43.36 V 220.499 H 203.289 Z"
       style="fill: rgb(113, 208, 248); stroke: rgb(197, 198, 198); stroke-width: 3;"
       bx:shape="cross 43.36 73.654 399.823 367.113 73.423 79.965 0.5 1@87f30f10"
       id="path122"
       inkscape:export-xdpi="96"
       inkscape:export-ydpi="96"
       inkscape:export-filename="/home/eamonn/git/svpsouthruislip.org.uk/content/img/svp2.svg.png" />
    <path
       d="M 306 291 m -154.909 0 a 154.909 154.909 0 1 0 309.818 0 a 154.909 154.909 0 1 0 -309.818 0 Z M 306 291 m -92.945 0 a 92.945 92.945 0 0 1 185.89 0 a 92.945 92.945 0 0 1 -185.89 0 Z"
       transform="matrix(-0.393221, 0.919444, -0.919444, -0.393221, 634.85884, 89.151054)"
       style="fill: rgb(113, 208, 248); stroke: rgb(197, 198, 198); stroke-width: 3;"
       bx:shape="ring 306 291 92.945 92.945 154.909 154.909 1@4f772d17"
       id="path124"
       inkscape:export-xdpi="96"
       inkscape:export-ydpi="96"
       inkscape:export-filename="/home/eamonn/git/svpsouthruislip.org.uk/content/img/svp2.svg.png" />
    <text
       style="font-size:26px;white-space:pre;fill:#333333"
       id="text128"
       transform="matrix(1.193851,0,0,1.193851,59.338175,-301.47507)"
       inkscape:export-xdpi="96"
       inkscape:export-ydpi="96"
       inkscape:export-filename="/home/eamonn/git/svpsouthruislip.org.uk/content/img/svp2.svg.png">
      <textPath
         startOffset="20"
         xlink:href="#text-path-1"
         id="textPath126">Faith in Action</textPath>
    </text>
    <text
       style="font-size:26px;white-space:pre;fill:#333333"
       transform="matrix(1.193851,0,0,1.193851,14.630858,-20.849792)"
       id="text132"
       inkscape:export-xdpi="96"
       inkscape:export-ydpi="96"
       inkscape:export-filename="/home/eamonn/git/svpsouthruislip.org.uk/content/img/svp2.svg.png">
      <textPath
         startOffset="20"
         xlink:href="#text-path-2"
         id="textPath130">South Ruislip</textPath>
    </text>
    <rect
       x="44.383"
       y="222.22"
       width="397.365"
       height="70.042"
       rx="1.386"
       ry="1.386"
       style="fill: rgb(113, 208, 248);"
       id="rect134"
       inkscape:export-xdpi="96"
       inkscape:export-ydpi="96"
       inkscape:export-filename="/home/eamonn/git/svpsouthruislip.org.uk/content/img/svp2.svg.png" />
    <text
       style="font-size:38.54759979px;text-anchor:middle;white-space:pre;fill:#333333;stroke-width:0.96853268"
       x="252.93256"
       y="263.98135"
       id="text136"
       transform="scale(0.96853272,1.0324896)"
       inkscape:export-xdpi="96"
       inkscape:export-ydpi="96"
       inkscape:export-filename="/home/eamonn/git/svpsouthruislip.org.uk/content/img/svp2.svg.png">Saint Vincent de Paul</text>
  </g>
</svg>
